<?xml version="1.0" encoding="utf-8"?>
<!-- Generator: Adobe Illustrator 20.0.0, SVG Export Plug-In . SVG Version: 6.00 Build 0)  -->
<svg version="1.1" id="Laag_1" xmlns="http://www.w3.org/2000/svg" xmlns:xlink="http://www.w3.org/1999/xlink" x="0px" y="0px"
	 viewBox="0 0 612 792" style="enable-background:new 0 0 612 792;" xml:space="preserve">
<style type="text/css">
	.st0{clip-path:url(#SVGID_2_);}
</style>
<g>
	<g>
		<defs>
			<rect id="SVGID_1_" x="26.3" y="126" width="559.3" height="541.1"/>
		</defs>
		<clipPath id="SVGID_2_">
			<use xlink:href="#SVGID_1_"  style="overflow:visible;"/>
		</clipPath>
		<path class="st0" d="M384.4,353.9c-0.7-5.6-2.8-10.7-6.1-14.9l22.4-139.1c0.8-5.2-2.5-10.1-7.6-11.3l-0.2-0.1
			c-5.1-1.2-10.3,1.8-11.8,6.8l-40.8,134.9c-10.1,5.1-17.1,15.4-17.1,27.4c0,17,13.8,30.8,30.8,30.8c3.2,0,6.1-0.6,9-1.5l85.3,44.3
			c4.7,2.4,10.5,0.9,13.4-3.5l0.1-0.2c2.9-4.4,1.9-10.3-2.2-13.6L384.4,353.9z M338.8,357.6c0-8.4,6.8-15.2,15.2-15.2
			c8.4,0,15.2,6.8,15.2,15.2c0,8.4-6.8,15.2-15.2,15.2C345.6,372.8,338.8,365.9,338.8,357.6L338.8,357.6z M585.6,357.6
			c0,103-67.6,190.4-160.7,220.5l0-33c75.6-28.7,129.6-101.9,129.6-187.5c0-110.5-89.9-200.5-200.5-200.5
			c-110.5,0-200.5,89.9-200.5,200.5c0,11.1,0.9,22,2.7,32.6h-31.5c-1.5-10.6-2.3-21.5-2.3-32.6C122.4,229.8,226.3,126,354,126
			C481.7,126,585.6,229.8,585.6,357.6L585.6,357.6z M394.4,522.6l-71.3-70.5c-4.5-4.5-10.7-7-17-7h-36v-13.5
			c0-10-8.2-18.1-18.2-18.1H44.3c-10,0-18.1,8.1-18.1,18.1V553h375.4v-13.2C401.5,533.3,399,527.1,394.4,522.6L394.4,522.6z
			 M363.3,524.9h-69c-1.6,0-2.8-1.2-2.8-2.8v-53.3c0-1.6,1.2-2.8,2.8-2.8h13.2c0.7,0,1.5,0.3,2,0.8l55.8,53.3
			C367.1,521.8,365.9,524.9,363.3,524.9L363.3,524.9z M401.6,563v40.2c0,10-8.1,18.1-18.1,18.1H364c-3.5-24.1-24.3-42.6-49.3-42.6
			c-25,0-45.7,18.5-49.2,42.6h-98.4c-3.5-24.1-24.3-42.6-49.2-42.6c-25,0-45.7,18.5-49.2,42.6H44.3c-10,0-18.1-8.1-18.1-18.1V563
			H401.6z M314.8,590.9c-20.8,0-37.7,16.8-37.7,37.6c0,20.8,16.9,37.7,37.7,37.7c20.8,0,37.6-16.9,37.6-37.7
			C352.4,607.7,335.5,590.9,314.8,590.9L314.8,590.9z M314.8,647.3c-10.4,0-18.8-8.4-18.8-18.8c0-10.4,8.4-18.8,18.8-18.8
			c10.4,0,18.8,8.5,18.8,18.8C333.5,638.9,325.1,647.3,314.8,647.3L314.8,647.3z M117.8,590.9c-20.8,0-37.7,16.8-37.7,37.6
			c0,20.8,16.9,37.7,37.7,37.7c20.8,0,37.6-16.9,37.6-37.7C155.4,607.7,138.6,590.9,117.8,590.9L117.8,590.9z M117.8,647.3
			c-10.4,0-18.8-8.4-18.8-18.8c0-10.4,8.4-18.8,18.8-18.8c10.3,0,18.8,8.5,18.8,18.8C136.7,638.9,128.2,647.3,117.8,647.3
			L117.8,647.3z M117.8,647.3"/>
	</g>
</g>
</svg>
